<?xml version="1.0" encoding="UTF-8"?>
<svg width="100px" height="15px" viewBox="0 0 100 15" version="1.1" xmlns="http://www.w3.org/2000/svg" xmlns:xlink="http://www.w3.org/1999/xlink">
    <!-- Generator: sketchtool 53 (72520) - https://sketchapp.com -->
    <title>065CB0A8-2BA1-43BC-92A1-31E9D503D3E1</title>
    <desc>Created with sketchtool.</desc>
    <g id="Page-1" stroke="none" stroke-width="1" fill="none" fill-rule="evenodd">
        <g id="S2_BP_005_desktop_BOOKMAKERS" transform="translate(-246.000000, -1329.000000)" fill-rule="nonzero">
            <g id="reviewbetvictor-logo-copy-6" transform="translate(246.000000, 1329.000000)">
                <polygon id="Shape" fill="#60BEE2" points="21.6 0.979591837 26.1529954 0.979591837 26.1529954 14.4 27.1115207 14.4 27.1115207 0.979591837 32 0.979591837 32 0 21.6 0"></polygon>
                <polygon id="Shape" fill="#60BEE2" points="10.4 14.4 19.2 14.4 19.2 13.4237288 11.4 13.4237288 11.4 7.51728814 17.6 7.51728814 17.6 6.54101695 11.4 6.54101695 11.4 0.976271186 19.2 0.976271186 19.2 0 10.4 0"></polygon>
                <path d="M7.104,7.02915254 C7.392,6.88271186 7.728,6.68745763 7.968,6.39457627 C8.592,5.76 8.928,4.93016949 8.928,3.90508475 C8.928,1.90372881 7.68,0.439322034 5.616,0.0488135593 C5.328,0 4.704,0 4.56,0 L0,0 L0,14.4 L4.464,14.4 C4.464,14.4 4.512,14.4 4.608,14.4 C5.136,14.4 7.296,14.3023729 8.592,13.0332203 C9.264,12.3498305 9.6,11.4711864 9.6,10.3972881 C9.552,8.59118644 8.352,7.56610169 7.104,7.02915254 Z M0.96,0.976271186 L4.56,0.976271186 C4.848,0.976271186 5.28,0.976271186 5.424,1.02508475 C6.384,1.22033898 7.968,1.85491525 7.968,3.90508475 C7.968,4.68610169 7.776,5.27186441 7.296,5.66237288 C6.48,6.49220339 5.088,6.49220339 4.848,6.49220339 L4.848,6.49220339 L4.848,6.49220339 L4.848,6.49220339 L0.96,6.49220339 L0.96,0.976271186 Z M7.92,12.3498305 C6.72,13.5213559 4.512,13.4237288 4.464,13.4237288 L0.96,13.4237288 L0.96,7.51728814 L4.8,7.51728814 C4.8,7.51728814 4.8,7.51728814 4.848,7.51728814 C5.184,7.51728814 8.496,7.71254237 8.64,10.4949153 C8.64,11.2271186 8.4,11.8616949 7.92,12.3498305 Z" id="Shape" fill="#60BEE2"></path>
                <path d="M95.5918367,7.88126309 C98.922449,7.2974956 98.9714286,4.33001089 98.9714286,4.2813636 C98.9714286,2.82194489 98.5795918,1.70305721 97.7959184,0.924700561 C96.7673469,-0.0482452467 95.5428571,0.000402043722 95.4938776,0.000402043722 L90.4,0.000402043722 L90.4,14.3027054 L91.3795918,14.3027054 L91.3795918,8.02720496 L94.4163265,8.02720496 L98.7755102,14.4 L100,14.4 L95.5918367,7.88126309 Z M91.4285714,7.05425915 L91.4285714,1.02199514 L95.5428571,1.02199514 C95.5428571,1.02199514 96.4734694,1.02199514 97.1591837,1.65440992 C97.7469388,2.18953011 98.0408163,3.11382863 98.0408163,4.2813636 C98.0408163,4.37865818 97.9918367,6.85966999 94.7102041,7.00561186 L91.4285714,7.05425915 L91.4285714,7.05425915 Z" id="Shape" fill="#FFFFFF"></path>
                <polygon id="Shape" fill="#FFFFFF" points="75.2 0 64.8 0 64.8 0.979591837 69.3529954 0.979591837 69.3529954 14.4 70.3115207 14.4 70.3115207 0.979591837 75.2 0.979591837"></polygon>
                <path d="M82,0 C78.2382979,0 75.2,3.23758389 75.2,7.2 C75.2,11.1624161 78.2382979,14.4 82,14.4 C85.7617021,14.4 88.8,11.1624161 88.8,7.2 C88.8,3.23758389 85.7617021,0 82,0 Z M82,13.433557 C78.7687943,13.433557 76.164539,10.6308725 76.164539,7.2 C76.164539,3.76912752 78.7687943,0.966442953 82,0.966442953 C85.2312057,0.966442953 87.835461,3.76912752 87.835461,7.2 C87.835461,10.6308725 85.2312057,13.433557 82,13.433557 Z" id="Shape" fill="#FFFFFF"></path>
                <path d="M62.5029046,11.5489933 L62.5029046,11.5489933 C61.4074689,12.7087248 59.8639004,13.433557 58.2207469,13.433557 C54.8846473,13.433557 52.1958506,10.6308725 52.1958506,7.2 C52.1958506,3.76912752 54.8846473,0.966442953 58.2207469,0.966442953 C59.7643154,0.966442953 61.1585062,1.54630872 62.2041494,2.51275168 L62.2041494,2.51275168 L62.9510373,1.88456376 C61.7062241,0.724832215 60.0630705,0 58.2207469,0 C54.3369295,0 51.2,3.23758389 51.2,7.2 C51.2,11.1624161 54.3369295,14.4 58.2207469,14.4 C60.1626556,14.4 61.9053942,13.5785235 63.2,12.2738255 L62.5029046,11.5489933 Z" id="Shape" fill="#FFFFFF"></path>
                <rect id="Rectangle-path" fill="#FFFFFF" x="48" y="0" width="1" height="14.4"></rect>
                <polygon id="Shape" fill="#FFFFFF" points="40 11.5591837 34.8403101 0 33.6 0 40 14.4 46.4 0 45.1596899 0"></polygon>
            </g>
        </g>
    </g>
</svg>