<?xml version="1.0" encoding="UTF-8" standalone="no"?>
<svg
   xmlns:dc="http://purl.org/dc/elements/1.1/"
   xmlns:cc="http://creativecommons.org/ns#"
   xmlns:rdf="http://www.w3.org/1999/02/22-rdf-syntax-ns#"
   xmlns:svg="http://www.w3.org/2000/svg"
   xmlns="http://www.w3.org/2000/svg"
   height="20"
   width="20"
   id="svg4"
   version="1.1"
   viewBox="0 0 38.4 38.4">
  <defs
     id="defs8" />
  <path
     fill="rgba(240,245,250,.6)"
     id="path2"
     d="m 17.603094,35.2 h 3.898361 v -3.31789 c 6.097172,-0.552636 9.124178,-3.723293 9.124178,-7.8157 0,-5.050449 -4.810547,-6.524838 -9.124178,-7.483913 V 11.49472 c 1.866362,0.405404 3.690731,1.179925 5.183819,2.396137 L 29.961908,9.9830076 C 27.722273,8.1395067 24.860908,7.034235 21.501455,6.7024467 V 3.2000001 h -3.898361 v 3.4288311 c -5.599086,0.5163453 -8.916546,3.6870018 -8.916546,7.4102958 0,5.014157 4.64491,6.451218 8.916546,7.372969 v 5.714029 c -2.778547,-0.442733 -5.060174,-1.73256 -6.594092,-3.170658 l -3.234635,4.09241 c 2.281625,2.028059 5.47427,3.502446 9.829892,3.834233 V 35.2 Z m 7.009354,-10.617244 c 0,1.179923 -0.995004,2.248905 -3.110993,2.616984 v -4.939507 c 1.82437,0.516347 3.110993,1.10631 3.110993,2.322523 z m -9.87072,-10.949034 c 0,-1.253539 1.036996,-2.137965 2.861366,-2.359848 v 4.460489 c -1.700722,-0.479024 -2.861366,-1.032694 -2.861366,-2.101678 v 0 z" />
</svg>
