<svg xmlns="http://www.w3.org/2000/svg" xmlns:xlink="http://www.w3.org/1999/xlink" width="137" height="30" viewBox="0 0 137 30">
    <defs>
        <linearGradient id="b" x1="50%" x2="50%" y1="98.482%" y2=".288%">
            <stop offset="0%" stop-color="#FC5B02"/>
            <stop offset="100%" stop-color="#F70"/>
        </linearGradient>
        <path id="a" d="M52.804 0h84.063v29.335H52.804z"/>
        <linearGradient id="d" x1="50%" x2="50%" y1="0%" y2="99.171%">
            <stop offset="0%" stop-color="#0F4A80"/>
            <stop offset="100%" stop-color="#24112A"/>
        </linearGradient>
        <path id="c" d="M0 0h53.4v29.335H0z"/>
    </defs>
    <g fill="none" fill-rule="evenodd">
        <g>
            <use fill="#F70" xlink:href="#a"/>
            <use fill="url(#b)" xlink:href="#a"/>
        </g>
        <path fill="#FFF" fill-rule="nonzero" d="M69.22 10.879V7.846h-9.427v3.033h2.929v10.725h3.568V10.88h2.93zm9.405-3.033h-7.818v13.758h7.818v-3.032h-4.25V16.2h4.023v-3.032h-4.022v-2.29h4.249V7.847zm5.837 13.758V13.19l6.58 8.415h3.568V7.846h-3.568v8.416l-6.58-8.416h-3.568v13.758h3.568zm16.604 0V13.19l6.58 8.415h3.569V7.846h-3.569v8.416l-6.58-8.416h-3.568v13.758h3.568zm13.036-13.758v13.758h3.569V7.846h-3.569zm5.838 12.52l1.526-2.887c.763.722 1.918 1.403 3.156 1.403.722 0 1.155-.227 1.382-.475a1.23 1.23 0 0 0 .35-.866c0-.268-.103-.578-.391-.825-.351-.31-.887-.454-1.774-.722l-.928-.289c-.578-.186-1.424-.495-1.98-1.114-.702-.763-.784-1.732-.784-2.434 0-1.691.66-2.722 1.258-3.32.701-.702 1.856-1.3 3.527-1.3 1.361 0 2.95.433 4.249 1.114l-1.423 2.784c-1.073-.845-1.877-.928-2.352-.928-.35 0-.825.083-1.175.413-.207.206-.351.433-.351.742 0 .248.041.433.186.62l.054.06c.132.134.417.346 1.142.558l1.093.33c.866.268 1.774.577 2.496 1.361.701.743.887 1.506.887 2.455 0 1.258-.31 2.475-1.3 3.465-1.175 1.176-2.599 1.403-4.063 1.403-.78 0-1.526-.067-2.404-.351l-.298-.103a9.605 9.605 0 0 1-2.083-1.093z"/>
        <g>
            <use fill="#200B57" xlink:href="#c"/>
            <use fill="url(#d)" xlink:href="#c"/>
        </g>
        <path fill="#FFF" fill-rule="nonzero" d="M8.289 7.846v13.758h7.858v-3.032h-4.29V7.846H8.29zm9.694 0v13.758h3.569V7.846h-3.569zm5.012 0l5.776 13.758h2.784l5.858-13.758h-3.877l-3.342 8.375-3.3-8.375h-3.899zm23.68 0v3.033h-4.25v2.29h4.023V16.2h-4.022v2.372h4.249v3.032h-7.818V7.846h7.818z"/>
    </g>
</svg>
