<?xml version="1.0" encoding="UTF-8"?>
<svg width="220px" height="28px" viewBox="0 0 220 28" version="1.1" xmlns="http://www.w3.org/2000/svg" xmlns:xlink="http://www.w3.org/1999/xlink">
    <!-- Generator: sketchtool 52.6 (67491) - http://www.bohemiancoding.com/sketch -->
    <title>C1EFE1CC-9B79-4E9B-98A3-38019860D157</title>
    <desc>Created with sketchtool.</desc>
    <g id="Page-1" stroke="none" stroke-width="1" fill="none" fill-rule="evenodd">
        <g id="BP_001_desktop_menu_HOME_v4" transform="translate(-141.000000, -23.000000)">
            <g id="Group-2">
                <g id="Betting_pro_logo-Copy" transform="translate(141.000000, 23.000000)">
                    <path d="M6.7953668,21.1675676 L8.25637066,21.1675676 C9.93256951,21.1675676 11.1330723,20.9523831 11.8579151,20.5220077 C12.5827578,20.0916323 12.9451737,19.400777 12.9451737,18.4494208 C12.9451737,17.4980647 12.5827578,16.8072094 11.8579151,16.376834 C11.1330723,15.9464586 9.93256951,15.7312741 8.25637066,15.7312741 L6.7953668,15.7312741 L6.7953668,21.1675676 Z M6.7953668,10.7706564 L8.01853282,10.7706564 C10.1024557,10.7706564 11.1444015,9.94389501 11.1444015,8.29034749 C11.1444015,6.63679997 10.1024557,5.81003861 8.01853282,5.81003861 L6.7953668,5.81003861 L6.7953668,10.7706564 Z M0.135907336,0.713513514 L10.0571429,0.713513514 C12.4128818,0.713513514 14.2023105,1.27978842 15.4254826,2.41235521 C16.6486548,3.54492201 17.2602317,5.17579373 17.2602317,7.30501931 C17.2602317,8.59614545 17.0280589,9.66640502 16.5637066,10.5158301 C16.0993542,11.3652552 15.3915105,12.0844243 14.4401544,12.6733591 C15.3915105,12.8545698 16.2012837,13.1320445 16.8694981,13.5057915 C17.5377125,13.8795385 18.0813364,14.3382212 18.5003861,14.8818533 C18.9194358,15.4254853 19.2195615,16.0370622 19.4007722,16.7166023 C19.5819829,17.3961424 19.6725869,18.1209743 19.6725869,18.8911197 C19.6725869,20.0916405 19.4630652,21.1562373 19.0440154,22.0849421 C18.6249657,23.0136469 18.0360398,23.7951062 17.2772201,24.4293436 C16.5184003,25.063581 15.5953722,25.539252 14.5081081,25.8563707 C13.420844,26.1734894 12.1976902,26.3320463 10.83861,26.3320463 L0.135907336,26.3320463 L0.135907336,0.713513514 Z M37.3745174,6.35366795 L29.4579151,6.35366795 L29.4579151,10.634749 L36.9328185,10.634749 L36.9328185,16.2749035 L29.4579151,16.2749035 L29.4579151,20.6918919 L37.3745174,20.6918919 L37.3745174,26.3320463 L22.7984556,26.3320463 L22.7984556,0.713513514 L37.3745174,0.713513514 L37.3745174,6.35366795 Z M51.0332046,6.35366795 L51.0332046,26.3320463 L44.3737452,26.3320463 L44.3737452,6.35366795 L38.9034749,6.35366795 L38.9034749,0.713513514 L56.5034749,0.713513514 L56.5034749,6.35366795 L51.0332046,6.35366795 Z M68.3274131,6.35366795 L68.3274131,26.3320463 L61.6679537,26.3320463 L61.6679537,6.35366795 L56.1976834,6.35366795 L56.1976834,0.713513514 L73.7976834,0.713513514 L73.7976834,6.35366795 L68.3274131,6.35366795 Z M82.5637066,0.713513514 L82.5637066,26.3320463 L75.9042471,26.3320463 L75.9042471,0.713513514 L82.5637066,0.713513514 Z M87.0826255,26.3320463 L87.0826255,0.713513514 L93.7420849,0.713513514 L106.041699,16.376834 L106.041699,0.713513514 L112.667181,0.713513514 L112.667181,26.3320463 L106.041699,26.3320463 L93.7420849,10.6687259 L93.7420849,26.3320463 L87.0826255,26.3320463 Z M130.131274,11.9938224 L143.348263,11.9938224 C143.348263,13.3529025 143.291635,14.5873818 143.178378,15.6972973 C143.065122,16.8072128 142.838612,17.8378331 142.498842,18.7891892 C142.023164,20.125618 141.37761,21.3091326 140.562162,22.3397683 C139.746714,23.3704041 138.789709,24.231142 137.69112,24.9220077 C136.59253,25.6128735 135.386364,26.1395091 134.072587,26.5019305 C132.758809,26.8643519 131.377099,27.0455598 129.927413,27.0455598 C127.934096,27.0455598 126.116353,26.7171204 124.474131,26.0602317 C122.831909,25.4033429 121.421885,24.4803148 120.244015,23.2911197 C119.066146,22.1019246 118.148781,20.6749118 117.491892,19.0100386 C116.835003,17.3451654 116.506564,15.504772 116.506564,13.4888031 C116.506564,11.4954855 116.82934,9.66641759 117.474903,8.0015444 C118.120467,6.33667121 119.037832,4.9153212 120.227027,3.73745174 C121.416222,2.55958227 122.848898,1.64221693 124.525097,0.985328185 C126.201295,0.328439444 128.070003,7.10542736e-14 130.131274,7.10542736e-14 C132.804132,7.10542736e-14 135.14851,0.577600402 137.164479,1.73281853 C139.180448,2.88803666 140.777343,4.67746536 141.955212,7.1011583 L135.635521,9.71737452 C135.046587,8.31299169 134.282115,7.30502236 133.342085,6.69343629 C132.402055,6.08185022 131.331795,5.77606178 130.131274,5.77606178 C129.134615,5.77606178 128.228576,5.96293249 127.413127,6.33667954 C126.597679,6.71042658 125.901161,7.24272499 125.323552,7.93359073 C124.745943,8.62445648 124.292923,9.45688059 123.964479,10.430888 C123.636034,11.4048955 123.471815,12.4921433 123.471815,13.6926641 C123.471815,14.7799282 123.613383,15.7878975 123.896525,16.7166023 C124.179667,17.6453071 124.604373,18.4494175 125.170656,19.1289575 C125.73694,19.8084976 126.439121,20.3351333 127.27722,20.7088803 C128.11532,21.0826274 129.089312,21.2694981 130.199228,21.2694981 C130.856117,21.2694981 131.490344,21.1958823 132.101931,21.0486486 C132.713517,20.901415 133.262803,20.6635795 133.749807,20.3351351 C134.236811,20.0066908 134.638866,19.5819846 134.955985,19.0610039 C135.273103,18.5400231 135.488288,17.9057952 135.601544,17.1583012 L130.131274,17.1583012" id="BettingPRO" fill="#0E0E0E"></path>
                    <path d="M153.371429,12.4694981 L155.579923,12.4694981 C158.026267,12.4694981 159.249421,11.4049013 159.249421,9.27567568 C159.249421,7.1464501 158.026267,6.08185328 155.579923,6.08185328 L153.371429,6.08185328 L153.371429,12.4694981 Z M153.371429,26.3320463 L146.711969,26.3320463 L146.711969,0.713513514 L157.312741,0.713513514 C160.189461,0.713513514 162.39227,1.46099639 163.921236,2.95598456 C165.450201,4.45097273 166.214672,6.55751537 166.214672,9.27567568 C166.214672,11.993836 165.450201,14.1003786 163.921236,15.5953668 C162.39227,17.090355 160.189461,17.8378378 157.312741,17.8378378 L153.371429,17.8378378 L153.371429,26.3320463 Z" id="Combined-Shape" fill="#D62329"></path>
                    <path d="M175.558301,12.1637066 L176.815444,12.1637066 C178.129221,12.1637066 179.137191,11.8918946 179.839382,11.3482625 C180.541574,10.8046305 180.892664,10.0231711 180.892664,9.003861 C180.892664,7.98455089 180.541574,7.20309152 179.839382,6.65945946 C179.137191,6.1158274 178.129221,5.84401544 176.815444,5.84401544 L175.558301,5.84401544 L175.558301,12.1637066 Z M190.202317,26.3320463 L181.911969,26.3320463 L175.558301,16.4787645 L175.558301,26.3320463 L168.898842,26.3320463 L168.898842,0.713513514 L179.261776,0.713513514 C180.68881,0.713513514 181.934615,0.923035228 182.999228,1.34208494 C184.063841,1.76113466 184.941567,2.33307231 185.632432,3.05791506 C186.323298,3.78275781 186.844271,4.62084466 187.195367,5.57220077 C187.546463,6.52355688 187.722008,7.54285171 187.722008,8.63011583 C187.722008,10.5781307 187.252,12.1580377 186.311969,13.3698842 C185.371939,14.5817306 183.984565,15.4028293 182.149807,15.8332046 L190.202317,26.3320463 Z" id="Path-2" fill="#D62329"></path>
                    <path d="M197.949035,13.5227799 C197.949035,14.54209 198.141568,15.4821064 198.526641,16.3428571 C198.911714,17.2036079 199.432687,17.9510908 200.089575,18.5853282 C200.746464,19.2195656 201.510935,19.7122248 202.383012,20.0633205 C203.255088,20.4144162 204.178116,20.5899614 205.152124,20.5899614 C206.126131,20.5899614 207.049159,20.4144162 207.921236,20.0633205 C208.793312,19.7122248 209.563446,19.2195656 210.23166,18.5853282 C210.899875,17.9510908 211.42651,17.2036079 211.811583,16.3428571 C212.196656,15.4821064 212.389189,14.54209 212.389189,13.5227799 C212.389189,12.5034698 212.196656,11.5634535 211.811583,10.7027027 C211.42651,9.84195194 210.899875,9.09446907 210.23166,8.46023166 C209.563446,7.82599425 208.793312,7.33333509 207.921236,6.98223938 C207.049159,6.63114368 206.126131,6.45559846 205.152124,6.45559846 C204.178116,6.45559846 203.255088,6.63114368 202.383012,6.98223938 C201.510935,7.33333509 200.746464,7.82599425 200.089575,8.46023166 C199.432687,9.09446907 198.911714,9.84195194 198.526641,10.7027027 C198.141568,11.5634535 197.949035,12.5034698 197.949035,13.5227799 Z M190.983784,13.5227799 C190.983784,11.6200677 191.334874,9.84762726 192.037066,8.20540541 C192.739257,6.56318355 193.71325,5.13050805 194.959073,3.90733591 C196.204897,2.68416377 197.6942,1.72715918 199.427027,1.03629344 C201.159854,0.345427691 203.068201,7.10542736e-14 205.152124,7.10542736e-14 C207.213395,7.10542736e-14 209.116079,0.345427691 210.860232,1.03629344 C212.604385,1.72715918 214.105013,2.68416377 215.362162,3.90733591 C216.619311,5.13050805 217.598967,6.56318355 218.301158,8.20540541 C219.00335,9.84762726 219.35444,11.6200677 219.35444,13.5227799 C219.35444,15.4254921 219.00335,17.1979326 218.301158,18.8401544 C217.598967,20.4823763 216.619311,21.9150518 215.362162,23.1382239 C214.105013,24.3613961 212.604385,25.3184007 210.860232,26.0092664 C209.116079,26.7001322 207.213395,27.0455598 205.152124,27.0455598 C203.068201,27.0455598 201.159854,26.7001322 199.427027,26.0092664 C197.6942,25.3184007 196.204897,24.3613961 194.959073,23.1382239 C193.71325,21.9150518 192.739257,20.4823763 192.037066,18.8401544 C191.334874,17.1979326 190.983784,15.4254921 190.983784,13.5227799 Z" id="Combined-Shape" fill="#D62329"></path>
                </g>
            </g>
        </g>
    </g>
</svg>