<svg xmlns="http://www.w3.org/2000/svg" height="20" width="20"><path fill="rgba(240,245,250,.6)" d="M17.28 9.174l-.016 1.656c-.01.144-.196.346-.345.398-.785.275-1.147.8-1.118 1.63v.764c.001 1.427.153 1.66 1.432 2.168.165 1.552-.034 2.006-1.442 2.49L10.167 20l.001-4.348.023-2.844c.037-.93.436-1.44 1.246-1.716l5.566-1.896c.062-.022.135-.012.278-.02zm-7.69 3.277c-.016-.768-.594-1.188-1.32-1.423L3.1 9.29l-.53-.154v1.96c1.46.352 1.71.662 1.713 2.058v.485c-.002 1.503-.246 1.818-1.657 2.14-.173 1.424.01 1.954 1.184 2.376L9.61 20l-.02-7.548zm.247-5.648c1.933.04 3.493-1.433 3.523-3.325.03-1.904-1.42-3.434-3.293-3.477C8.115-.044 6.59 1.395 6.557 3.316c-.034 1.9 1.423 3.45 3.282 3.487zm1.406 1c-.854-.036-1.71-.04-2.564.002-1.174.058-2.084.612-2.77 1.613l4.013 1.423 4.108-1.455c-.69-.98-1.606-1.532-2.787-1.582zm-7.643 5.65L3.6 12.9c-.047-.567-.362-.9-.93-.902-.53.007-.85.338-.878.875-.022.434-.087.91.057 1.294.11.292.486.586.802.674.45.127.792-.174.905-.637.06-.242.046-.5.066-.75l-.022-.001zm14.634.001l-.001-.62c-.022-.53-.357-.8-.834-.833-.49-.036-.865.237-.93.73a5.08 5.08 0 0 0 .01 1.439c.078.488.442.74.952.693a.8.8 0 0 0 .797-.791c.02-.205.003-.412.003-.62z"/></svg>