<svg xmlns="http://www.w3.org/2000/svg" width="15" height="20" viewBox="0 0 15 20">
    <path fill="#FE5E31" fill-rule="evenodd" d="M11.4 6.044c-.53-.372-1.074-.734-1.56-1.157C8.35 3.594 7.568 2.072 8.415 0 6.418 1.154 4.964 2.61 4.238 4.68c-.713 2.034-.537 4.1-.121 6.296C2.564 9.734 2.374 8.148 2.36 6.471c-.083.034-.143.042-.177.075C.388 8.266-.337 11.17.146 13.803.684 17.31 3.786 20 7.533 20c4.056 0 7.354-3.152 7.464-7.08a6.915 6.915 0 0 0-.009-.592c-.058-.398-.092-.793-.162-1.19-.382-2.182-1.616-3.82-3.426-5.094z"/>
</svg>
