<svg version="1" xmlns="http://www.w3.org/2000/svg" width="933.333" height="933.333" viewBox="0 0 700.000000 700.000000"><path d="M30.5.7C20.8 2.8 11.9 8.5 6.7 16.2-.6 26.8 0-1.5.2 352.6l.3 318.9 3.1 6.5c3.9 8.3 10.1 14.5 18.4 18.4l6.5 3.1h642l6-2.4c8.2-3.3 17.3-12.4 20.6-20.6l2.4-6v-641l-2.3-5.8c-3.3-8.1-11.4-16.6-19.4-20.3L671.5.5 352 .4C176.3.3 31.6.4 30.5.7zm267.7 163c1.7 1.5 1.8 4.4 1.8 50.6v48.9l5.8-5c19.3-16.7 40-24.2 66.5-24.2 46.4 0 86.6 27.5 104 71.1 18.5 46.1 9.1 100.1-23.4 134.3-15.3 16.2-33.7 27.2-54.9 32.8-9.6 2.5-34.7 3.6-44.4 1.9-18.2-3.2-32.7-10.4-45.4-22.6-4.2-4.1-7.8-7.5-7.9-7.5-.2 0-.3 21.8-.3 48.4v48.5l-2.2 1.5c-3.4 2.4-72.2 2.4-75.6 0l-2.2-1.5V353.3c0-173.2.1-187.8 1.7-189.5 1.5-1.7 4-1.8 38.1-1.8 32.6 0 36.7.2 38.4 1.7z"/><path d="M337.7 304.6c-20 4.8-35.6 22-38.9 42.7-3.9 25.6 11.9 49.3 38.1 57.1 6.9 2 18.9 2.1 26.6.1 19.6-5.2 35.4-23.6 37.9-44.6 1.8-14.6-4.6-31.1-16.3-42.2-13.4-12.7-30.2-17.3-47.4-13.1z"/></svg>