<svg width="24" height="25" viewBox="0 0 24 25" fill="none" xmlns="http://www.w3.org/2000/svg">
<mask id="mask0_36_2914" style="mask-type:alpha" maskUnits="userSpaceOnUse" x="0" y="0" width="24" height="25">
<rect y="0.600098" width="24" height="24" fill="#D9D9D9"/>
</mask>
<g mask="url(#mask0_36_2914)">
<path d="M5 22.6001C4.45 22.6001 3.97917 22.4043 3.5875 22.0126C3.19583 21.6209 3 21.1501 3 20.6001V6.6001C3 6.0501 3.19583 5.57926 3.5875 5.1876C3.97917 4.79593 4.45 4.6001 5 4.6001H6V2.6001H8V4.6001H16V2.6001H18V4.6001H19C19.55 4.6001 20.0208 4.79593 20.4125 5.1876C20.8042 5.57926 21 6.0501 21 6.6001V20.6001C21 21.1501 20.8042 21.6209 20.4125 22.0126C20.0208 22.4043 19.55 22.6001 19 22.6001H5ZM5 20.6001H19V10.6001H5V20.6001ZM5 8.6001H19V6.6001H5V8.6001ZM12 14.6001C11.7167 14.6001 11.4792 14.5043 11.2875 14.3126C11.0958 14.1209 11 13.8834 11 13.6001C11 13.3168 11.0958 13.0793 11.2875 12.8876C11.4792 12.6959 11.7167 12.6001 12 12.6001C12.2833 12.6001 12.5208 12.6959 12.7125 12.8876C12.9042 13.0793 13 13.3168 13 13.6001C13 13.8834 12.9042 14.1209 12.7125 14.3126C12.5208 14.5043 12.2833 14.6001 12 14.6001ZM8 14.6001C7.71667 14.6001 7.47917 14.5043 7.2875 14.3126C7.09583 14.1209 7 13.8834 7 13.6001C7 13.3168 7.09583 13.0793 7.2875 12.8876C7.47917 12.6959 7.71667 12.6001 8 12.6001C8.28333 12.6001 8.52083 12.6959 8.7125 12.8876C8.90417 13.0793 9 13.3168 9 13.6001C9 13.8834 8.90417 14.1209 8.7125 14.3126C8.52083 14.5043 8.28333 14.6001 8 14.6001ZM16 14.6001C15.7167 14.6001 15.4792 14.5043 15.2875 14.3126C15.0958 14.1209 15 13.8834 15 13.6001C15 13.3168 15.0958 13.0793 15.2875 12.8876C15.4792 12.6959 15.7167 12.6001 16 12.6001C16.2833 12.6001 16.5208 12.6959 16.7125 12.8876C16.9042 13.0793 17 13.3168 17 13.6001C17 13.8834 16.9042 14.1209 16.7125 14.3126C16.5208 14.5043 16.2833 14.6001 16 14.6001ZM12 18.6001C11.7167 18.6001 11.4792 18.5043 11.2875 18.3126C11.0958 18.1209 11 17.8834 11 17.6001C11 17.3168 11.0958 17.0793 11.2875 16.8876C11.4792 16.6959 11.7167 16.6001 12 16.6001C12.2833 16.6001 12.5208 16.6959 12.7125 16.8876C12.9042 17.0793 13 17.3168 13 17.6001C13 17.8834 12.9042 18.1209 12.7125 18.3126C12.5208 18.5043 12.2833 18.6001 12 18.6001ZM8 18.6001C7.71667 18.6001 7.47917 18.5043 7.2875 18.3126C7.09583 18.1209 7 17.8834 7 17.6001C7 17.3168 7.09583 17.0793 7.2875 16.8876C7.47917 16.6959 7.71667 16.6001 8 16.6001C8.28333 16.6001 8.52083 16.6959 8.7125 16.8876C8.90417 17.0793 9 17.3168 9 17.6001C9 17.8834 8.90417 18.1209 8.7125 18.3126C8.52083 18.5043 8.28333 18.6001 8 18.6001ZM16 18.6001C15.7167 18.6001 15.4792 18.5043 15.2875 18.3126C15.0958 18.1209 15 17.8834 15 17.6001C15 17.3168 15.0958 17.0793 15.2875 16.8876C15.4792 16.6959 15.7167 16.6001 16 16.6001C16.2833 16.6001 16.5208 16.6959 16.7125 16.8876C16.9042 17.0793 17 17.3168 17 17.6001C17 17.8834 16.9042 18.1209 16.7125 18.3126C16.5208 18.5043 16.2833 18.6001 16 18.6001Z" fill="#1C1B1F"/>
</g>
</svg>
