<svg xmlns="http://www.w3.org/2000/svg" width="19" height="19" viewBox="0 0 19 19" fill="none">
  <path d="M9.5 6.50037V16.2504M9.5 6.50037C9.22871 5.38242 8.76159 4.42662 8.15955 3.7577C7.55752 3.08877 6.84851 2.73772 6.125 2.75033C5.62772 2.75033 5.15081 2.94787 4.79917 3.2995C4.44754 3.65113 4.25 4.12805 4.25 4.62533C4.25 5.12261 4.44754 5.59952 4.79917 5.95115C5.15081 6.30278 5.62772 6.50033 6.125 6.50033M9.5 6.50037C9.77129 5.38242 10.2384 4.42662 10.8404 3.7577C11.4425 3.08877 12.1515 2.73772 12.875 2.75033C13.3723 2.75033 13.8492 2.94787 14.2008 3.2995C14.5525 3.65113 14.75 4.12805 14.75 4.62533C14.75 5.12261 14.5525 5.59952 14.2008 5.95115C13.8492 6.30278 13.3723 6.50033 12.875 6.50033M14.75 9.50037V14.7504C14.75 15.1482 14.592 15.5297 14.3107 15.811C14.0294 16.0923 13.6478 16.2504 13.25 16.2504H5.75C5.35218 16.2504 4.97064 16.0923 4.68934 15.811C4.40804 15.5297 4.25 15.1482 4.25 14.7504V9.50037M3.5 6.50037H15.5C15.9142 6.50037 16.25 6.83615 16.25 7.25037V8.75037C16.25 9.16458 15.9142 9.50037 15.5 9.50037H3.5C3.08579 9.50037 2.75 9.16458 2.75 8.75037V7.25037C2.75 6.83615 3.08579 6.50037 3.5 6.50037Z" stroke="white" stroke-width="2" stroke-linecap="round" stroke-linejoin="round"/>
</svg>